<?xml version="1.0" standalone="no"?>
<!DOCTYPE svg PUBLIC "-//W3C//DTD SVG 20010904//EN"
 "http://www.w3.org/TR/2001/REC-SVG-20010904/DTD/svg10.dtd">
<svg version="1.0" xmlns="http://www.w3.org/2000/svg"
 width="192.000000pt" height="192.000000pt" viewBox="0 0 192.000000 192.000000"
 preserveAspectRatio="xMidYMid meet">

<g transform="translate(0.000000,192.000000) scale(0.100000,-0.100000)"
fill="#000000" stroke="none">
<path d="M263 1896 c-106 -34 -194 -118 -233 -223 -20 -54 -20 -69 -18 -732
l3 -676 29 -58 c36 -71 108 -140 184 -175 l57 -27 665 0 c580 1 670 3 705 16
l40 16 3 165 2 165 -91 6 c-51 4 -248 7 -438 7 l-346 0 -192 192 -193 193 0
-193 0 -192 -55 0 -55 0 0 585 0 585 55 0 55 0 0 -202 0 -203 198 197 197 197
432 7 433 7 0 162 0 163 -32 13 c-49 20 -1344 24 -1405 5z m-43 -931 l0 -585
-55 0 -55 0 0 585 0 585 55 0 55 0 0 -585z"/>
<path d="M667 1232 c-191 -191 -209 -212 -214 -250 -8 -59 1 -83 53 -141 48
-53 64 -62 64 -36 0 40 51 99 308 358 l277 277 -140 0 -140 0 -208 -208z"/>
<path d="M1198 1343 c-106 -108 -124 -144 -107 -210 8 -31 57 -84 258 -283
136 -135 271 -267 299 -295 l52 -49 0 454 0 455 -215 -215 -215 -215 -37 38
-38 37 190 190 190 190 -141 0 -140 0 -96 -97z"/>
<path d="M933 1077 c-29 -30 -54 -67 -58 -85 -15 -70 -4 -86 213 -304 l206
-208 133 0 c73 0 133 3 133 7 0 4 -120 128 -267 275 -220 220 -272 276 -289
318 l-21 50 -50 -53z"/>
<path d="M722 867 c-54 -58 -69 -100 -57 -158 5 -22 37 -63 103 -131 l95 -98
146 0 145 0 -177 178 c-97 98 -177 180 -177 183 0 2 -6 21 -13 42 l-14 38 -51
-54z"/>
</g>
</svg>
