/* XPM */
static char *result[] = {
/* columns rows colors chars-per-pixel */
"16 16 186 2 ",
"   c #390469",
".  c #3C066B",
"X  c #3D076B",
"o  c #37086D",
"O  c #370A6F",
"+  c #351074",
"@  c #351174",
"#  c #351175",
"$  c #3E1072",
"%  c #391577",
"&  c #3A1778",
"*  c #32197C",
"=  c #321A7C",
"-  c #411475",
";  c #2F2484",
":  c #2F2485",
">  c #2B2D8D",
",  c #2B2E8D",
"<  c #2C2E8D",
"1  c #322786",
"2  c #332786",
"3  c #382080",
"4  c #3B2482",
"5  c #2E308E",
"6  c #2F318E",
"7  c #283996",
"8  c #293996",
"9  c #2A3A96",
"0  c #5E3184",
"q  c #433A91",
"w  c #603385",
"e  c #693F8C",
"r  c #24439F",
"t  c #25449F",
"y  c #3D4097",
"u  c #39499E",
"i  c #3A4A9F",
"p  c #1D5BB3",
"a  c #1D5CB3",
"s  c #1E5CB3",
"d  c #204FA9",
"f  c #214FA9",
"g  c #304DA4",
"h  c #324FA5",
"j  c #2150A9",
"k  c #2D59AE",
"l  c #2F5BAF",
"z  c #1968BD",
"x  c #1968BE",
"c  c #2964B7",
"v  c #2B66B8",
"b  c #46479A",
"n  c #564D9C",
"m  c #6F549B",
"M  c #73589E",
"N  c #4250A2",
"B  c #4350A2",
"V  c #405AAA",
"C  c #435CAC",
"Z  c #4761AF",
"A  c #4762AF",
"S  c #587ABE",
"D  c #7E65A5",
"F  c #7E66A5",
"G  c #7F67A6",
"H  c #1574C8",
"J  c #1575C8",
"K  c #2570C1",
"L  c #2771C1",
"P  c #227CCB",
"I  c #247DCC",
"U  c #4B7EC4",
"Y  c #5E7FC0",
"T  c #8067A6",
"R  c #8068A7",
"E  c #8169A7",
"W  c #0F80D2",
"Q  c #0B8EDD",
"!  c #0B8EDE",
"~  c #0C8FDE",
"^  c #0D8FDE",
"/  c #1181D3",
"(  c #1182D3",
")  c #1E89D5",
"_  c #2D83CE",
"`  c #2F84CE",
"'  c #3085CF",
"]  c #3386CF",
"[  c #208AD6",
"{  c #2A90D8",
"}  c #2C91D8",
"|  c #069CE9",
" . c #0A9BE8",
".. c #089CE9",
"X. c #099DE9",
"o. c #1995E0",
"O. c #1B95E0",
"+. c #259BE2",
"@. c #289CE2",
"#. c #15A2EA",
"$. c #17A2EB",
"%. c #05A7F2",
"&. c #06A7F2",
"*. c #07AAF3",
"=. c #03A9F4",
"-. c #05A9F4",
";. c #08AAF3",
":. c #0BACF4",
">. c #0EADF4",
",. c #24A8EC",
"<. c #27A9EC",
"1. c #6D8DC8",
"2. c #708CC6",
"3. c #6995CE",
"4. c #759DD2",
"5. c #7B9ED1",
"6. c #6FA2D7",
"7. c #71A0D5",
"8. c #79A5D7",
"9. c #71A4D8",
"0. c #72A9DC",
"q. c #75ABDD",
"w. c #78CBF4",
"e. c #8B83B9",
"r. c #8887BD",
"t. c #8A89BE",
"y. c #9489BB",
"u. c #9189BD",
"i. c #9A8FBF",
"p. c #A08ABA",
"a. c #A692BF",
"s. c #818AC0",
"d. c #838CC1",
"f. c #8498CB",
"g. c #879ACC",
"h. c #8AB2DE",
"j. c #A0A3CD",
"k. c #B1A9CE",
"l. c #AFACD1",
"z. c #AEAFD3",
"x. c #B5ADD0",
"c. c #B5AED1",
"v. c #AFB1D4",
"b. c #ACB3D7",
"n. c #AEB5D8",
"m. c #ADBEDF",
"M. c #AEBFDF",
"N. c #BFB1D1",
"B. c #B4BEDD",
"V. c #B5BEDE",
"C. c #BCBEDB",
"Z. c #B6C0DF",
"A. c #8CC0E8",
"S. c #92C4E9",
"D. c #81CEF5",
"F. c #A9C8E7",
"G. c #A9CDEB",
"H. c #AACDEB",
"J. c #ABCDEB",
"K. c #ABCEEC",
"L. c #B2C2E1",
"P. c #B7C2E0",
"I. c #B3C9E6",
"U. c #BDCAE5",
"Y. c #BECFE9",
"T. c #A6D1EF",
"R. c #A8D2EF",
"E. c #ACD3EF",
"W. c #BFD0E9",
"Q. c #B0DBF5",
"!. c #B2DDF5",
"~. c #C7CAE3",
"^. c #C8CCE4",
"/. c #D2CDE3",
"(. c #C5D4EB",
"). c #C0D6ED",
"_. c #C8D6EC",
"`. c #C3D8EE",
"'. c #D4D0E4",
"]. c #D7D4E7",
"[. c #C5E4F7",
"{. c #C8E5F7",
"}. c #D8E0F0",
"|. c #E7E4F0",
" X c #E8E6F0",
".X c None",
/* pixels */
".XO # = ; < 8 t j a x J ( ^  ..X",
"  o + * ; < 7 r d p z H / ~ ..%.",
"X - & 4 ; , 9 h l v L I [ O.$.;.",
"w a.M i.: 5 s.P.M.W.`.J.E.{.D.>.",
"e N.E k.1 r.n.Z S (.9.` A.!.<.=.",
"e N.R x.e.v.i V U.4.z 0.R.@.| -.",
"e N.F  Xl.y B V.}.U 7.K.} Q X.-.",
"e N.G '.q b ~.g.2.I.h.' W ^ X.-.",
"e N.T /.n z.^.f.f 5.F._ W ^ X.-.",
"e N.D |.].j.N B.1.s 8.G.{ ! X.-.",
"e N.R c.u.C.u C L.3.x q.T.+.| -.",
"e N.E k.2 t.b.A Y _.6.] S.Q.,.=.",
"0 p.m y.; 6 d.Z.m.Y.).H.E.[.w.:.",
". $ % 3 ; > 8 g k c K P ) o.#.*.",
"  o @ * ; < 7 r f a z H ( ~ ..&.",
".XO # = ; < 8 t j a x J ( ^  ..X"
};
