/* XPM */
static char *result[] = {
/* columns rows colors chars-per-pixel */
"32 32 177 2 ",
"   c #370064",
".  c #390166",
"X  c #39066B",
"o  c #370A6F",
"O  c #39086D",
"+  c #350E72",
"@  c #3B0E71",
"#  c #341376",
"$  c #33177A",
"%  c #381779",
"&  c #321C7E",
"*  c #3A1F7F",
"=  c #2D1E80",
"-  c #2E2687",
";  c #2C2B8B",
":  c #302182",
">  c #2B318F",
",  c #263392",
"<  c #293694",
"1  c #253997",
"2  c #263C99",
"3  c #283C98",
"4  c #5C2F83",
"5  c #613687",
"6  c #26419D",
"7  c #28439E",
"8  c #1F4BA6",
"9  c #1F52AB",
"0  c #1D5CB4",
"q  c #1C57B0",
"w  c #2346A2",
"e  c #224DA7",
"r  c #254FA8",
"t  c #2053AC",
"y  c #3759AB",
"u  c #215BB2",
"i  c #395FB0",
"p  c #1E61B7",
"a  c #1A65BB",
"s  c #1569BF",
"d  c #3562B3",
"f  c #44499D",
"g  c #5D4F9C",
"h  c #514899",
"j  c #57519F",
"k  c #6F4892",
"l  c #704892",
"z  c #66579F",
"x  c #4E5CA9",
"c  c #555AA5",
"v  c #5262AD",
"b  c #4266B3",
"n  c #546CB4",
"m  c #4D73BA",
"M  c #4073BD",
"N  c #5571B7",
"B  c #6A6CAF",
"V  c #796CAB",
"C  c #7968A9",
"Z  c #646DB1",
"A  c #6E74B3",
"S  c #6D7CBB",
"D  c #6774B6",
"F  c #7A75B2",
"G  c #747EBB",
"H  c #7B7CB8",
"J  c #176BC0",
"K  c #186BC0",
"L  c #1671C5",
"P  c #1973C6",
"I  c #1276CA",
"U  c #1478CB",
"Y  c #127ED0",
"T  c #2C7ECB",
"R  c #4A7DC3",
"E  c #886EAA",
"W  c #8570AC",
"Q  c #807AB5",
"!  c #947DB3",
"~  c #6A81BF",
"^  c #7382BE",
"/  c #7E83BC",
"(  c #0E84D5",
")  c #0E8CDB",
"_  c #1085D5",
"`  c #118DDC",
"'  c #2883CF",
"]  c #2988D3",
"[  c #0C93E1",
"{  c #0798E6",
"}  c #0A99E6",
"|  c #059FEC",
" . c #089FEC",
".. c #08A0EC",
"X. c #06A7F2",
"o. c #04ADF7",
"O. c #15ADF3",
"+. c #4485CB",
"@. c #4D8BCD",
"#. c #4E83C6",
"$. c #5688C9",
"%. c #5F92CF",
"&. c #4B95D5",
"*. c #489CDB",
"=. c #5293D2",
"-. c #589BD6",
";. c #6788C5",
":. c #6B8BC6",
">. c #7187C2",
",. c #6A92CC",
"<. c #6592CD",
"1. c #629CD6",
"2. c #6899D2",
"3. c #7A9CD0",
"4. c #4BA1DE",
"5. c #5AA5DE",
"6. c #60A3DB",
"7. c #48A9E5",
"8. c #44B2ED",
"9. c #47B9F2",
"0. c #6BB3E5",
"q. c #76B8E7",
"w. c #7BCDF5",
"e. c #A292BF",
"r. c #9D94C2",
"t. c #85A4D4",
"y. c #B6A7CB",
"u. c #B6ACCF",
"i. c #A2AED6",
"p. c #B1AED2",
"a. c #A9B7DA",
"s. c #B1BDDE",
"d. c #BEB8D6",
"f. c #C6BCD8",
"g. c #B9C1DF",
"h. c #8BD3F6",
"j. c #ADC5E4",
"k. c #ACCCEA",
"l. c #A7C3E4",
"z. c #BAC6E2",
"x. c #B9C9E5",
"c. c #B5CEEA",
"v. c #B3C6E4",
"b. c #ABD1EE",
"n. c #B6D3EE",
"m. c #A9D4F1",
"M. c #A7D9F5",
"N. c #B2DBF4",
"B. c #B4D6F0",
"V. c #CAC3DD",
"C. c #CBCCE3",
"Z. c #D7D5E7",
"A. c #D2D5E8",
"S. c #D7DCED",
"D. c #DBDBEB",
"F. c #D8D7E9",
"G. c #D5DFF0",
"H. c #E1DEEC",
"J. c #D4E1F1",
"K. c #DCE5F3",
"L. c #DBEAF6",
"P. c #D7EDFA",
"I. c #DCEDF9",
"U. c #DEF1FC",
"Y. c #E3E3EF",
"T. c #E3EAF5",
"R. c #EBEDF5",
"E. c #E3EFF8",
"W. c #E8EBF5",
"Q. c #EEF0F7",
"!. c #E5F1FA",
"~. c #EBF2F9",
"^. c #F2F2F7",
"/. c #F3F4F9",
"(. c #F6F9FC",
"). c #FDFDFE",
"_. c None",
/* pixels */
"_._._._.# # $ & - - ; > < 2 6 w e t q p a K P U ( _ ) [ _._._._.",
"_._.X o + # $ & & - ; > < 3 7 w e q q p a K P U U _ ) [ } .._._.",
"_.X X o + # $ & - - ; > < 3 6 w r t q p a s P U _ _ ) [ } ..X._.",
"_.X X o + # $ & & - ; > < 3 6 7 e t q p a s P U U _ ) [ } ..X._.",
". X O o + # $ & & - > > < 2 6 7 e t 0 p a s P U _ _ ` [ } ..X.o.",
". X @ @ + % * : - - ; > < 6 7 w r t u p a s P U _ _ ` } } ..X.o.",
". 5 f.! + W V.z & - - > < ^ g.g.x.x.x.x.n.n.n.n.n.B.N.N.N.h.O.o.",
". l ).y.+ e.).V & - ; > ^ W.Q.K.Y.K.K.(.)./.K.L.L.L.(.).!.9.X.o.",
"  l ).y.o e.).V & - ; G Q.S.n y y d 3./.K.&.T ' ] 0.~.U.9.| X.o.",
"  l ).y.# e.).V = - F R.S.v 2 6 8 ;.E.K.#.s L I 5.!.!.7.{  .X.o.",
"  k ).y.o e.).V & F Q.F.v 1 6 7 ;.R.K.#.a J L -.!.E.7.[ } ..X.o.",
"  k ).y.+ e.).V V Q.F.c , 2 6 ~ R.(.<.0 a J -.!.L.7.) [ } ..X.o.",
"  k ).y.o e.).d.W.F.j > , 2 S W.).E.M 0 a -.E.E.4.( ) [ } ..X.o.",
"  k ).y.o e.).).Z.j ; > , S Q.G.g.(.<.0 <.E.T.&.Y ( ) [ } ..X.o.",
"  k ).y.o e.).Y.j - ; > A W.W.m b K.K.$.l.T.=.P Y _ ) [ } ..X.o.",
"  k (.y.# e.).r.& - ; B W.).i.7 e ;.~.K.3.] L U _ _ ) [ } ..X.o.",
"  l (.y.+ e.).r.= : B R.W.(.i.w e 9 <.R.K.@.L I Y ( ) [ } ..X.o.",
"  l ).y.+ e.).D.h h Y.H.Z C.T.n 8 9 q <.~.L.&.I Y ( ) [ } ..X.o.",
"  l ).y.+ e.).).C.p./.A , D R.S.m 9 q p <.!.L.&.Y ( ) [ } ..X.o.",
"  k ).y.+ e.).f.R.).T.f , 1 >./.J.m q 0 a 1.~.P.*.( ) [ } ..X.o.",
"  k ).y.+ e.).V W /./.Z , 1 2 >.Q.G.R 0 a J 1.~.J.7.) [ } ..X.o.",
"  k ).y.+ e.).V = Q ^.A.x 1 6 w :.Q.J.#.a J K 6.!.J.7.[ } ..X.o.",
"  l (.y.+ e.).V = - Q /.A.x 2 w e :.Q.J.+.s L U 5.!.P.8.{ ..X.o.",
"  l ).y.+ e.).V = - ; / ^.A.n y i d t.(.J.@.T ] ] q.(.P.8...X.o.",
"  l ).y.o e.).C - : ; ; / /.^.T.T.Y.E.(.).~.E.E.U.!.(.).I.9.X.o.",
"  4 y.E + C y.z : : ; < < ^ s.s.s.v.v.j.j.j.k.b.b.M.M.M.M.w.O.o.",
". . o + + # $ & : ; ; > < 1 6 w e t q p a K P U Y _ ) [ } ..o.o.",
". X X o + # $ & : : ; > < 3 6 w e t 0 p a K L U Y _ ) [ } | X.o.",
"_.X o o # # $ & : ; ; ; < 3 6 w e t q p a K L U _ _ ) [ }  .X._.",
"_.X X o + # $ & : : ; < < 3 6 w r 9 q p a K L U U _ ) [ } ..X._.",
"_._.X o + # $ & : ; ; > < 3 6 w t t q p a K L U _ _ ) [ }  ._._.",
"_._._._.+ # $ & : : ; > < 3 6 w e t q p a K L U U _ ) [ _._._._."
};
