/* XPM */
static char *result[] = {
/* columns rows colors chars-per-pixel */
"64 64 204 2 ",
"   c #370067",
".  c #3A0167",
"X  c #36056B",
"o  c #39046A",
"O  c #370A6F",
"+  c #38086D",
"@  c #340C71",
"#  c #2E1A7D",
"$  c #351275",
"%  c #331679",
"&  c #321C7D",
"*  c #41217E",
"=  c #2F1F80",
"-  c #2F2485",
";  c #2D2B8B",
":  c #292C8C",
">  c #302182",
",  c #362B89",
"<  c #29308F",
"1  c #37338E",
"2  c #2A3493",
"3  c #273996",
"4  c #283A97",
"5  c #263D99",
"6  c #283694",
"7  c #333A95",
"8  c #5A3D8E",
"9  c #4B2E85",
"0  c #26419D",
"q  c #2D429C",
"w  c #394098",
"e  c #1F4BA6",
"r  c #1E4FA9",
"t  c #1E55AE",
"y  c #1D5CB4",
"u  c #1F57B0",
"i  c #2445A1",
"p  c #224AA5",
"a  c #224FA8",
"s  c #2D4EA6",
"d  c #2052AB",
"f  c #2B54AA",
"g  c #2F59AD",
"h  c #3556AA",
"j  c #2A5DB1",
"k  c #3956A8",
"l  c #1C60B7",
"z  c #1A65BB",
"x  c #1668BE",
"c  c #196ABF",
"v  c #1763BA",
"b  c #246BBE",
"n  c #2765B8",
"m  c #3365B5",
"M  c #484A9C",
"N  c #5E4D9A",
"B  c #62549E",
"V  c #7B5C9E",
"C  c #6D4691",
"Z  c #4B5CAA",
"A  c #5858A3",
"S  c #414EA1",
"D  c #6157A1",
"F  c #7B5EA1",
"G  c #735EA2",
"H  c #4C62AE",
"J  c #5D63AB",
"K  c #5364AE",
"L  c #486BB5",
"P  c #576BB2",
"I  c #4674BD",
"U  c #4978BF",
"Y  c #5375BB",
"T  c #6B65A9",
"R  c #7969A9",
"E  c #696EB1",
"W  c #6775B6",
"Q  c #156DC2",
"!  c #186DC2",
"~  c #0F7BCE",
"^  c #1672C5",
"/  c #1476C9",
"(  c #137BCD",
")  c #0F7ED1",
"_  c #107FD1",
"`  c #236FC1",
"'  c #247CCA",
"]  c #2A77C6",
"[  c #367BC6",
"{  c #477CC3",
"}  c #977AB0",
"|  c #9579AF",
" . c #7182BF",
".. c #6C80BE",
"X. c #0E84D5",
"o. c #0E8CDB",
"O. c #1184D4",
"+. c #1E8CD7",
"@. c #0B90DF",
"#. c #1B92DD",
"$. c #2882CE",
"%. c #3683CC",
"&. c #2589D4",
"*. c #388CD2",
"=. c #3995D9",
"-. c #2593DC",
";. c #0C94E3",
":. c #0A9BE7",
">. c #099EEB",
",. c #069AE8",
"<. c #189AE4",
"1. c #229BE2",
"2. c #06A1EE",
"3. c #08A2EE",
"4. c #1AA5EC",
"5. c #06A5F0",
"6. c #04AAF4",
"7. c #03AFF8",
"8. c #19ACF2",
"9. c #03B0F9",
"0. c #27AAED",
"q. c #4185CB",
"w. c #5D92CF",
"e. c #5381C4",
"r. c #6C8AC5",
"t. c #6B93CD",
"y. c #7C97CC",
"u. c #679BD4",
"i. c #7C9ED1",
"p. c #748FC8",
"a. c #65A5DB",
"s. c #79A7D9",
"d. c #5EB8EC",
"f. c #5DBEF1",
"g. c #50A7E1",
"h. c #62ADE3",
"j. c #61B3E7",
"k. c #74B8E7",
"l. c #76AFE0",
"z. c #57C0F3",
"x. c #70C3F1",
"c. c #6FC5F2",
"v. c #8881B9",
"b. c #9B8CBC",
"n. c #A691BE",
"m. c #868FC3",
"M. c #8592C6",
"N. c #8892C5",
"B. c #9994C4",
"V. c #969CCA",
"C. c #9898C7",
"Z. c #A699C5",
"A. c #95A1CE",
"S. c #92AAD5",
"D. c #8FB4DE",
"F. c #95B4DD",
"G. c #B4ACCF",
"H. c #A6AAD1",
"J. c #B4ADD0",
"K. c #A1B4DA",
"L. c #AAA4CC",
"P. c #9DBDE2",
"I. c #8FB7E0",
"U. c #A3BDE1",
"Y. c #BBC1DE",
"T. c #9DCBEC",
"R. c #95D4F5",
"E. c #97CFF0",
"W. c #A2C2E5",
"Q. c #ABCCEA",
"!. c #B9C7E3",
"~. c #ADD2EE",
"^. c #BFD7EE",
"/. c #AADAF5",
"(. c #AAD9F4",
"). c #BEDBF2",
"_. c #C1C2DE",
"`. c #C7CCE4",
"'. c #CFD2E7",
"]. c #CED5EA",
"[. c #CCD9ED",
"{. c #C1D4EB",
"}. c #DBDCEC",
"|. c #D4D5E8",
" X c #CBDEF1",
".X c #D0CFE5",
"XX c #DAE1EF",
"oX c #CAE2F4",
"OX c #C7E2F5",
"+X c #D6E1F1",
"@X c #DBE3F1",
"#X c #DAE9F6",
"$X c #DAECF9",
"%X c #E5E3EF",
"&X c #E4E5F1",
"*X c #EEEBF3",
"=X c #E4ECF6",
"-X c #EEF2F9",
";X c #F4F5F9",
":X c #F7F9FC",
">X c #FEFEFF",
",X c #F5F4F9",
"<X c #F0EEF5",
"1X c None",
/* pixels */
"1X1X1X1X1X1X1X1X1X1X$ % % % & & > - - - ; ; : < 2 2 4 5 0 i i p p a d d u u y l z z c ! ^ ^ / ( ( ( O.O.o.o.o.1X1X1X1X1X1X1X1X1X",
"1X1X1X1X1X1X1XO O $ $ $ % & & > > > - ; ; ; 1 2 2 4 4 5 5 0 i i p a d d u y y l z z c Q ^ ^ / / O.O.O.O.o.o.;.;.;.1X1X1X1X1X1X1X",
"1X1X1X1X1X+ O $ $ $ $ $ $ % & & > > > ; ; ; < < 2 2 4 5 q i i p p a f t u j l l n z c ! ^ ^ / ( ( O.O.o.o.o.@.;.:.:.3.1X1X1X1X1X",
"1X1X1X1Xo + O O O $ $ $ & & & & > > > ; ; ; ; 2 2 4 4 5 5 q i i a a a d u y y l z z c ^ ^ ^ / ( ( O.O.O.o.o.;.;.;.:.>.3.1X1X1X1X",
"1X1X1Xo + + O O $ $ $ % % & & & > > > - ; ; 1 < 2 2 4 5 5 i i p p a d d u y y y z z c ! ^ ^ ^ ( ( O.O.O.o.o.;.;.;.:.>.3.3.1X1X1X",
"1X1Xo o o + O O O $ $ $ % % & & > > ; ; ; ; ; < 2 4 4 5 5 q i p a d d d u y y v z z c ! ^ ^ / ( / O.O.o.o.#.@.;.;.:.>.3.5.6.1X1X",
"1X1Xo o o + @ O $ $ $ $ % % & = > > > ; ; ; < 2 2 4 4 5 0 0 i i p a d d u y y l z z c c ^ ^ / ( ( O.O.O.o.o.@.;.:.>.>.3.3.6.1X1X",
"1X. . o + + + O O $ $ $ % % & & > > > ; ; ; ; < 2 2 4 5 0 i i i p a d d u u l l z z c ^ ^ ^ / ( O.( O.O.o.o.@.;.;.;.>.3.5.6.6.1X",
"1X. o o o + @ + O $ $ $ % > % > > > ; ; ; ; < 2 2 4 3 5 0 0 i i p a d d t u y l z z ! ! Q ^ / / ( _ O.O.o.@.;.;.>.:.3.3.5.6.6.1X",
". . o o o + + @ O $ $ $ % % % > > > > ; ; ; : 1 2 2 4 5 5 0 i i a a d d t y l v l z z ! ^ ^ / ( ( O.O.o.o.o.o.;.:.:.:.2.5.6.6.7.",
". . o o + + O O $ $ $ $ % % & > > > > ; ; ; ; < 2 2 3 5 0 0 i e p a d d t y y y z z ! ! Q / / ( ( O.X.X.o.o.;.;.;.:.>.2.5.6.6.9.",
". . . o + o + O O $ $ $ % % % & > > > - ; ; < 2 2 4 3 5 5 0 i 0 e e e t t y y u v v x Q Q ^ / ( ( _ X.X.X.o.o.;.;.:.>.2.5.6.6.9.",
". . X C n.n.n.8 @ @ 9 b.Z.Z.R > > > > ; ; ; ; 2 2 6 3 K M.y.M.y.y.y.y.i.i.i.s.s.s.s.s.s.s.l.l.l.k.k.k.k.k.k.x.x.x.c.c.c.0.6.9.9.",
". . X } >X>X>XF @ @ 8 *X>X>XJ.> > > - ; ; ; < ; 2 2 P XX>X>X>X>X>X>X>X>X>X>X>X>X>X>X>X>X>X>X>X>X>X>X>X>X>X>X>X>X>X>X>X/.8.6.6.9.",
". .   } >X>X:XF @ @ 8 *X>X>XJ.& > > ; > ; ; 2 2 2 J }.>X>X>X>X>X>X>X>X>X>X>X>X>X>X>X>X>X>X>X>X>X>X>X>X>X>X>X>X>X>X>X/.8.5.6.6.9.",
".     } >X>X>XF @ @ 8 *X>X>XJ.& > > > ; ; ; : 2 J }.>X>X:X|.].].].[.[.].[.[.=X>X>X>X>X+X XoXoX XOXoXOXOX$X>X>X>X>X/.0.3.3.6.7.9.",
". .   } >X>X>XV @ @ 8 *X>X>XG.> > > > ; ; ; : J }.>X>X:XA.k k s g g j g n e.+X>X>X>XT.] ' ' ' +.&.&.+.=.oX>X>X>X/.4.>.2.5.6.6.9.",
". .   } >X>X>XF @ @ 8 &X>X>XG.& > > > ; ; ; J }.>X>X:XA.i 5 i p i a d t I [.>X>X:XP.b ! Q ^ ^ / ( ) -.).>X>X>X/.1.:.>.3.5.5.7.9.",
". .   } >X>X:XF @ @ 8 *X>X>XG.> > > - ; - A }.>X>X:XA.q 5 0 i i p a t I ].>X>X>XP.b x ! Q ^ / ( ~ =. X>X>X>X/.1.:.:.:.3.5.6.6.9.",
". .   } >X>X>XF @ @ 8 *X>X>XG.& & > - ; T }.>X>X:XV.w 5 0 0 i p a e L [.>X>X>XF.b z ! Q ^ ^ ^ ~ *.).>X>X>X(.1.;.:.:.>.5.5.6.6.9.",
". .   } >X>X>XF @ @ 8 *X>X>XJ.> & - - D }.>X>X:XV.w 3 5 0 0 i p p L [.>X>X>XF.b z z c ! Q ^ / *.).>X>X>X(.#.@.;.;.:.>.3.5.6.6.7.",
".     } >X>X>XF @ @ 8 *X>X>XJ.& - - D }.>X>X:XV.4 2 3 5 0 0 i i L ].>X>X>XF.n n z z c ! ^ / *.).>X>X>X(.-.o.@.;.;.:.>.3.5.6.6.7.",
". .   } >X>X:XF @ @ 8 *X>X>XG.& # B }.>X>X,XC.7 2 2 4 5 0 0 i L ].>X>X>X{.m y l z c c ! Q %.{.>X>X>X(.-.o.o.@.;.:.:.>.3.5.6.7.7.",
". .   } >X>X>XF @ @ 8 *X>X>XG.& B }.>X>X:XV.1 < 2 4 4 5 5 0 H ].>X>X>X>Xt.u l l z z z ! %.).>X>X>X~.&.X.o.o.;.;.;.:.>.3.5.6.6.7.",
". .   } >X>X>XF O @ 8 =X>X>XG.B }.>X>X:XB.1 : < 2 2 4 5 5 H ].>X>X>X>X-XU t y l z c z %.{.>X>X>X~.&.O.o.o.#.@.;.:.:.>.3.5.6.6.7.",
". .   } >X>X>XF O @ 8 *X>X>X|.}.>X>X:XB.1 ; 2 2 2 2 4 5 H ].>X>X>X>X>X-XU y y l l z [ {.>X>X>X~.&._ O.O.X.o.;.;.;.:.>.3.5.6.7.7.",
". .   } >X>X>XF @ @ 8 *X>X>X>X>X>X:XB., ; ; ; < 2 2 3 Z '.>X>X:X!.-X>X>Xt.u l l v [ {.>X>X>X~.&.( O.O.O.o.o.@.;.:.:.>.3.5.5.6.7.",
". .   } >X>X:XF @ @ 8 *X>X>X>X>X:XB., ; ; ; < 2 2 2 Z ].>X>X>XK.h !.>X>X{.n y l [ {.>X>X>XQ.$./ ( _ O.O.o.@.@.;.;.>.>.3.5.6.7.7.",
". .   } >X>X>XF O @ 8 *X>X>X>X:XB., - ; ; ; ; 2 2 Z '.>X>X>XK.s e p.:X>X>XK.b n U.>X>X>X~.' / ' ( _ O.O.o.#.@.;.;.:.>.3.5.6.6.7.",
". .   } >X>X:XF @ @ 8 *X>X>X>XJ., & - - ; ; : : A '.>X>X>X`.s i p g !.>X>X>XU.b w.*X>XQ.[ ^ / ( ( O.O.o.o.@.@.;.:.:.>.3.5.6.7.9.",
". .   } >X>X>XF @ @ 8 *X>X>X;XB # > - ; ; ; ; Z '.>X>X>X:X..e i a a L [.>X>X>XU.` w.P.] ^ ^ / ( ( _ O.O.O.o.;.;.;.>.>.3.5.5.6.7.",
". .   } >X>X>XV @ @ 8 &X>X>X}.9 & - - - ; ; A `.>X>X>X>X=XZ 0 e p a a I [.>X>X>XW.` ! ! ^ ^ / ( ( _ O.o.o.o.;.;.;.:.>.3.5.6.7.7.",
". .   } >X>X>XF @ @ 8 *X>X>X}.9 = > - ; ; M .X>X>X>X>X>X=XH i i p a d t I [.>X>X>XT.b ! Q ^ / ( ( _ O.O.O.;.;.;.;.>.>.3.5.6.6.7.",
".     } >X>X:XF @ @ 8 *X>X>X*XN # - - - N .X>X>X:XY.-X>X:XW 0 i p a a t t I [.>X>X>XU.] ^ ^ / ( ( O.O.O.o.@.@.;.;.;.>.3.5.6.6.9.",
". .   } >X>X>XF @ @ 8 *X>X>X>XL., - - 1 Y.>X>X>XH.S `.>X>X!.s i p a t d t y { [.>X>X:XW.' ^ / / / O.O.O.o.o.o.;.:.:.>.3.3.6.6.9.",
". .   } >X>X:XF @ @ 8 *X>X>X>X,Xv.> - v.>X>X>XH.7 6 m.>X>X:XS.s p a a t t y y {  X>X>X>XT.] / ~ ( O.O.o.O.o.;.;.:.:.>.3.5.6.7.9.",
". .   } >X>X>XF @ @ 8 *X>X>X>X>X,X| 1 `.>X>XY.w 2 2 k `.>X>X:XS.f a d d t y y y {  X>X>X>XW.' ~ _ O.O.O.o.@.@.<.:.>.>.3.5.6.6.9.",
". .   } >X>X>XF @ @ 8 *X>X>X>X>X>X<XL.-X>X,XE < 2 4 6 K [.>X>X:XA.f d t y u y v v q. X>X>X:XT.$._ ( O.O.O.@.;.;.;.;.>.3.5.6.6.9.",
". .   } >X>X:XF @ @ 8 *X>X>X}.%X>X>X>X>X>X&XM : 2 4 4 3 K }.>X>X:XS.d t t y y v l z q. X>X>X>XT.&.) O.X.o.o.;.;.:.:.>.3.3.6.6.9.",
". .   } >X>X:XG @ @ 8 *X>X>XJ.T %X>X>X>X>X&XM < 2 2 3 5 i P }.>X>X:XS.j t j y l z z x q.oX>X>X>XT.&.X.O.o.@.@.;.;.:.3.3.5.6.6.9.",
". .   } >X>X>XF @ @ 8 *X>X>XG.& T %X>X>X>X,XJ < 2 4 4 5 5 0 P }.>X>X:XS.j u y v v z z Q q.oX>X>X>XT.+.O.o.o.o.;.:.:.>.3.3.6.6.9.",
". .   } >X>X>XF @ @ 8 &X>X>XG.& & T %X>X>X>XJ.2 2 4 4 5 0 0 i Y +X>X>X:XD.j y y z z ! Q ! *.oX>X>X>XT.#.X.o.;.;.;.:.>.3.5.6.6.9.",
". .   } >X>X:XF @ @ 8 *X>X>XG.> & = T %X>X>X,Xm.1 2 4 5 0 0 i i Y XX>X>X:XD.n l c z z ^ ^ ^ q.OX>X>X:XT.#.o.;.:.:.:.>.3.3.6.7.9.",
". .   } >X>X>XF @ @ 8 *X>X>XG.& - - - T &X>X>X,XN.4 4 5 0 0 i i e Y XX>X>X,XD.n z z z ! ^ / ( *.OX>X>X:XE.<.o.;.;.:.>.3.5.6.6.9.",
". .   } >X>X>XF @ @ 8 *X>X>XG.& - - - - T &X>X>X,XN.5 5 5 0 i i p e Y +X>X>X:XD.b z z ^ ^ ^ / ( =.oX>X>X>XE.<.;.;.:.>.3.5.6.6.9.",
".     } >X>X>XF @ @ 8 *X>X>XG.> & - - - ; T &X>X>X,XN.q 0 i i p p a d Y +X>X>X:XD.b ! ! ^ ^ / / / =.oX>X>X:XE.<.;.:.>.3.5.6.6.9.",
". .   } >X>X:XF @ @ 8 *X>X>XG.& = - - ; ; ; E &X>X>X,XM.q 0 i p p a a a { }.>X>X:XD.! Q Q / / ( ( O.=.oX>X>X>XR.4.:.>.3.3.6.7.9.",
". .   } >X>X>XF @ @ 8 *X>X>XG.& > > - - ; ; : E &X>X>X,XM.k k k g m m m m t.=X>X>X:XI.[ ] $.$.*.&.&.-.g.$X>X>X>XR.<.>.3.5.6.6.9.",
". .   } >X>X:XV O @ 8 *X>X>XG.& > > - ; ; ; 1 2 E &X>X>X,X@X}.@X@X+X@X@X@X@X;X>X>X>X:X#X#X#X#X#X#X#X$X$X-X>X>X>X>XR.4.2.5.6.6.9.",
". .   } >X>X>XV @ @ 8 *X>X>XG.> > > - - ; ; ; 2 < W &X>X>X>X>X>X>X>X>X>X>X>X>X>X>X>X>X>X>X>X>X>X>X>X>X>X>X>X>X>X>X>XR.8.5.6.6.9.",
". .   } <X,X:XV @ @ 8 *X>X>XG.& - > - - ; ; : : 2 2 W &X>X:X:X>X>X>X>X:X>X>X>X:X>X>X>X:X:X>X>X>X>X:X>X>X:X>X>X:X>X:X:XR.8.6.6.9.",
". . . 9 | V V 9 @ @ > F R R N & > > - ; ; ; 2 2 2 2 3 K p.W r.r.r.r.r.r.t.t.u.w.u.u.u.u.a.a.a.a.h.h.h.h.h.d.d.d.f.f.z.z.8.6.6.9.",
". . . + o o O @ @ $ $ $ $ % # # > > - - ; 1 ; 2 2 4 4 5 5 0 i i e e e t t y y y y v Q Q ^ ^ / ( ~ ) X.X.X.o.;.;.;.,.>.2.5.6.6.7.",
". . . + o + O O @ @ $ $ % % & & > > - ; ; ; : 2 2 2 4 5 5 i i i p a a t t y y y v z x ! ^ ^ / / ( ) O.O.o.@.o.;.:.,.>.3.5.6.6.7.",
". . . . + + O O $ $ $ % % % & = > > - ; ; ; : 2 2 6 4 5 5 5 i p p a t t j y l l z z x Q ^ ^ / / ( _ O.o.o.o.@.;.:.:.>.3.5.6.6.9.",
"1X. . + o + O O O $ $ $ % & & & > > > - ; ; : < 2 6 4 5 i i i i p a a d d y y l z z z ! ^ ^ / ( _ O.O.O.o.o.;.;.;.:.>.2.5.6.6.1X",
"1Xo o o o + O $ O $ $ % % & & & > > - - ; ; 1 2 2 4 4 5 5 i i i p a a d u y y l z z ! ! ! ^ / ( ( O.O.O.X.o.@.;.:.:.>.3.5.6.6.1X",
"1X1Xo o o + O O O $ $ $ % % & & > > - ; ; 1 : : 2 2 4 5 0 q i p p a d t u u l l z z ! ! ^ ^ / ( ( O.O.o.o.#.@.;.;.:.>.3.5.6.1X1X",
"1X1Xo o o O O O $ $ $ % % % & & > > - - ; ; : 2 2 2 4 5 0 0 i i a a d d j y y l l z z ! ^ ^ / ( ( O.O.O.o.o.;.;.:.:.,.3.3.6.1X1X",
"1X1X1Xo o + O O O $ $ $ % % & > > > - ; ; ; : 2 2 4 4 5 q 0 i p p a a t t u l l v z ! ! ^ ^ / / ( _ O.O.o.o.@.;.;.:.>.3.5.1X1X1X",
"1X1X1X1X+ + + O $ $ $ $ % $ = = > > - - ; : : 2 2 2 4 4 0 0 i i p a d t u y y y n z ! ! ^ ^ / ( ( O.O.O.o.o.;.;.:.:.:.2.1X1X1X1X",
"1X1X1X1X1X+ O O O $ $ % % & % > > > - ; ; : 1 : 2 4 4 5 0 0 i p p a a d t y y v z c ! ! ` ^ / ( ( O.O.O.o.o.;.;.;.:.3.1X1X1X1X1X",
"1X1X1X1X1X1X1XO $ $ $ $ % % & > > > - ; ; ; : 2 2 4 4 5 0 0 i i a a e t j y y l z z ! ! ^ ^ / ( ( _ O.o.o.o.@.:.;.1X1X1X1X1X1X1X",
"1X1X1X1X1X1X1X1X1XO $ % % % % & > > - - ; ; : 1 2 4 4 5 5 i i p p a t t t u l l l z ! ! ^ ^ / ( ( O.O.O.O.o.;.1X1X1X1X1X1X1X1X1X"
};
